Coordinates
version=1
nRows=14
nColumns=42
inDegrees=yes

Units are S.I. units (second, meters, Newtons, ...)
If the header above contains a line with 'inDegrees', this indicates whether rotational values are in degrees (yes) or radians (no).

endheader
time	pelvis_tilt	pelvis_list	pelvis_rotation	pelvis_tx	pelvis_ty	pelvis_tz	hip_flexion_r	hip_adduction_r	hip_rotation_r	knee_angle_r	knee_adduction_r	knee_angle_r_beta	ankle_angle_r	subtalar_angle_r	mtp_angle_r	hip_flexion_l	hip_adduction_l	hip_rotation_l	knee_angle_l	knee_adduction_l	knee_angle_l_beta	ankle_angle_l	subtalar_angle_l	mtp_angle_l	lumbar_extension	lumbar_bending	lumbar_rotation	arm_flex_r	arm_add_r	arm_rot_r	elbow_flex_r	pro_sup_r	wrist_flex_r	wrist_dev_r	arm_flex_l	arm_add_l	arm_rot_l	elbow_flex_l	pro_sup_l	wrist_flex_l	wrist_dev_l
      1.97000000	      7.51159822	      0.46655392	      6.37640327	      0.16054139	      0.88282370	     -0.15563845	     28.50536043	     -6.46552064	    -24.02615262	     35.52611662	      2.76290907	      0.62004771	     10.95955237	     13.81297918	     -7.50602853	     -6.67724081	      1.05850427	    -21.47339928	     30.95630340	     -2.66386316	      0.54028942	     32.43973063	     36.83249953	     -7.50602853	    -20.05965230	     -0.59021614	     -5.95343900	     -5.70858796	     -7.03821977	    -34.46057159	     26.86043460	     90.00000001	      0.00000000	      0.00000000	      1.87650573	     -8.37913783	    -23.09553621	     43.03952288	     90.00000001	      0.00000000	      0.00000000
      1.98000000	      7.54399995	      0.34586811	      6.33372684	      0.16896470	      0.88141159	     -0.15584294	     28.32136712	     -5.88965599	    -23.22429524	     36.14460706	      2.59120554	      0.63084240	     10.56802435	     12.72919789	     -7.50580127	     -7.19565789	      1.06428037	    -21.13738973	     31.13916521	     -2.84629278	      0.54348096	     32.99501857	     36.38482290	     -7.50580127	    -19.92863442	     -0.36823074	     -5.91023662	     -5.38731612	     -7.09215082	    -34.82880911	     26.10676927	     90.00000001	      0.00000000	      0.00000000	      1.41321153	     -8.13832534	    -23.16030698	     43.28881927	     90.00000001	      0.00000000	      0.00000000
      1.99000000	      7.60820593	      0.18718319	      6.29766190	      0.17759853	      0.88011432	     -0.15608432	     28.06296322	     -5.31258965	    -22.68962372	     36.76333195	      2.33812953	      0.64164119	     10.42747953	     12.74412765	     -7.50577896	     -7.75565062	      1.01204635	    -20.95924692	     31.31884555	     -3.09259276	      0.54661697	     33.03103075	     36.31056397	     -7.50577896	    -19.80821503	     -0.07334579	     -5.81331442	     -5.38788755	     -7.12894791	    -34.86987578	     26.06622146	     90.00000001	      0.00000000	      0.00000000	      1.08308077	     -7.91149302	    -23.16224049	     43.14567725	     90.00000001	      0.00000000	      0.00000000
      2.00000000	      7.66826769	     -0.00054427	      6.24454774	      0.18637546	      0.87892217	     -0.15631108	     27.78979595	     -4.71587925	    -22.04172087	     37.35513025	      2.18181377	      0.65197002	     10.20980426	     12.76140283	     -7.50575525	     -8.34056299	      0.90573782	    -20.85658933	     31.47149353	     -3.30157293	      0.54928118	     33.13789100	     36.15056262	     -7.50575525	    -19.66146446	      0.26591888	     -5.70803010	     -5.35041319	     -7.17145774	    -34.90444852	     26.01004377	     90.00000001	      0.00000000	      0.00000000	      0.70195683	     -7.69542085	    -23.19076437	     42.97982483	     90.00000001	      0.00000000	      0.00000000
      2.01000000	      7.70451707	     -0.20949736	      6.23017438	      0.19528070	      0.87786747	     -0.15650242	     27.49741011	     -4.14067311	    -21.47110758	     37.85644497	      2.08158885	      0.66071961	     10.02399828	     12.82421001	     -7.50574251	     -8.87703459	      0.81124461	    -20.68369952	     31.64085590	     -3.59776890	      0.55223711	     33.18818801	     36.04658574	     -7.50574251	    -19.46547975	      0.60688003	     -5.62837246	     -5.37145646	     -7.12470050	    -34.91906057	     25.94399854	     90.00000001	      0.00000000	      0.00000000	      0.26150169	     -7.50679451	    -23.22791273	     42.78547284	     90.00000001	      0.00000000	      0.00000000
      2.02000000	      7.75176617	     -0.47581164	      6.17748587	      0.20424012	      0.87698662	     -0.15668705	     27.24008254	     -3.51055396	    -20.80645187	     38.39008580	      2.02996358	      0.67003340	      9.80242618	     12.91957107	     -7.50573036	     -9.43633150	      0.64017411	    -20.56437177	     31.80117898	     -3.84796151	      0.55503528	     33.22688699	     35.90349231	     -7.50573036	    -19.29402264	      1.02702343	     -5.55000863	     -5.29943532	     -7.15402437	    -34.92789723	     25.91640809	     90.00000001	      0.00000000	      0.00000000	     -0.22059335	     -7.31239637	    -23.27800425	     42.55404280	     90.00000001	      0.00000000	      0.00000000
      2.03000000	      7.82315930	     -0.83143974	      5.99640122	      0.21326592	      0.87638517	     -0.15665651	     26.91435404	     -2.71127001	    -19.42517222	     38.75860117	      2.38713148	      0.67646520	      9.20632529	     12.79324394	     -7.50567216	    -10.05720402	      0.18487962	    -20.88226587	     31.98994614	     -3.86097012	      0.55832989	     33.33189565	     35.28465303	     -7.50567216	    -19.13237242	      1.51924896	     -5.40808009	     -4.97518129	     -7.36563031	    -34.96240010	     25.79954260	     90.00000001	      0.00000000	      0.00000000	     -0.59820837	     -7.06338028	    -23.51087152	     42.16099699	     90.00000001	      0.00000000	      0.00000000
      2.04000000	      7.85966009	     -1.13543753	      5.92923069	      0.22235628	      0.87594273	     -0.15685296	     26.72767739	     -2.09025286	    -18.77177542	     39.31105157	      2.34910435	      0.68610728	      9.05930399	     12.70515322	     -7.50564969	    -10.57346342	     -0.02752307	    -20.74014472	     32.20229600	     -4.09822330	      0.56203609	     33.22824367	     35.11928701	     -7.50564969	    -18.93420746	      2.02084318	     -5.38536785	     -4.80932769	     -7.42248717	    -34.96750658	     25.79244759	     90.00000001	      0.00000000	      0.00000000	     -1.08221086	     -6.88938280	    -23.63628535	     41.82911611	     90.00000001	      0.00000000	      0.00000000
      2.05000000	      7.81209122	     -1.48826804	      5.79443119	      0.23135236	      0.87570505	     -0.15680472	     26.57798807	     -1.29769697	    -16.99072610	     39.69893530	      2.91420856	      0.69287713	      8.49984029	     10.09688062	     -7.50530266	    -10.92128413	     -0.39460813	    -20.66414034	     32.59800661	     -4.15364151	      0.56894254	     32.71777440	     34.19835046	     -7.50530266	    -18.64416247	      2.51554488	     -5.27757964	     -4.42313050	     -7.48526018	    -35.16414684	     25.44180840	     90.00000001	      0.00000000	      0.00000000	     -1.10507956	     -6.50039794	    -25.04284157	     40.63455514	     90.00000001	      0.00000000	      0.00000000
      2.06000000	      7.88436165	     -1.76421339	      5.74244197	      0.24063255	      0.87575723	     -0.15688963	     26.35498090	     -0.74542077	    -16.52457257	     40.28987952	      2.78533176	      0.70319105	      8.51308760	     10.13906248	     -7.50528951	    -11.42260288	     -0.61718856	    -20.50610894	     32.88081296	     -4.40879401	      0.57387845	     32.54817964	     34.13431765	     -7.50528951	    -18.48519292	      2.94951282	     -5.23873202	     -4.29305506	     -7.46825645	    -35.15469569	     25.49695141	     90.00000001	      0.00000000	      0.00000000	     -1.66261979	     -6.40025161	    -25.12153937	     40.35054520	     90.00000001	      0.00000000	      0.00000000
      2.07000000	      7.94383158	     -2.15603114	      5.63600296	      0.24987065	      0.87597644	     -0.15676891	     26.10990940	      0.03259456	    -15.69131885	     40.78606084	      2.81887907	      0.71185105	      9.07236723	      9.55176343	     -7.50520452	    -11.74350786	     -1.23584759	    -20.72977132	     33.59722852	     -4.40768132	      0.58638226	     31.44887548	     33.54974090	     -7.50520452	    -18.29942836	      3.49939621	     -5.22161618	     -3.97204112	     -7.53445921	    -35.12667282	     25.68165112	     90.00000001	      0.00000000	      0.00000000	     -2.04410904	     -6.30255327	    -25.45196930	     39.60806748	     90.00000001	      0.00000000	      0.00000000
      2.08000000	      8.04921145	     -2.40446546	      5.53500612	      0.25920329	      0.87647115	     -0.15673808	     25.78401606	      0.54445244	    -15.25239411	     41.37779672	      2.73694244	      0.72217879	      9.26905838	      9.32663715	     -7.50517534	    -12.17194823	     -1.56184564	    -20.63770809	     34.12072023	     -4.47016210	      0.59551891	     30.94697061	     33.30420183	     -7.50517534	    -18.18351778	      3.89088606	     -5.24158255	     -3.67263164	     -7.52776785	    -35.08185971	     25.83622353	     90.00000001	      0.00000000	      0.00000000	     -2.57235992	     -6.27101193	    -25.62799649	     39.12152107	     90.00000001	      0.00000000	      0.00000000
      2.09000000	      8.06943662	     -2.72478800	      5.46883237	      0.26843481	      0.87714494	     -0.15654147	     25.36822769	      1.17629529	    -14.71983217	     41.63504334	      2.75130871	      0.72666859	      9.98998812	      8.45494163	     -7.50508516	    -12.26912937	     -2.07611725	    -20.47817047	     35.07834417	     -4.49080704	      0.61223260	     29.27783778	     32.44186984	     -7.50508516	    -17.97198135	      4.33383193	     -5.19343425	     -3.49008053	     -7.48238698	    -34.97980707	     26.05853324	     90.00000001	      0.00000000	      0.00000000	     -2.80625655	     -6.23973775	    -26.07734625	     38.08260379	     90.00000001	      0.00000000	      0.00000000
      2.10000000	      8.12532623	     -2.91115292	      5.37339154	      0.27757989	      0.87807889	     -0.15639151	     24.84330985	      1.56797257	    -14.14099121	     41.91910656	      2.95178066	      0.73162643	     10.25899595	      7.41110837	     -7.50482900	    -12.41883021	     -2.38229892	    -19.96713005	     35.97254039	     -4.34978808	      0.62783927	     27.78145234	     30.94153732	     -7.50482900	    -17.82981257	      4.62806358	     -5.18990955	     -3.29699115	     -7.42504776	    -34.62391839	     26.46309756	     90.00000001	      0.00000000	      0.00000000	     -2.80094915	     -6.17530430	    -27.10975599	     36.62584446	     90.00000001	      0.00000000	      0.00000000
